<svg width="277" height="221" viewBox="0 0 277 221" fill="none" xmlns="http://www.w3.org/2000/svg">
<g clip-path="url(#clip0_6_707)">
<path d="M206.632 218.345C202.797 215.092 200.469 209.954 201.079 204.951C201.69 199.948 205.473 195.349 210.38 194.287C215.287 193.225 220.88 196.165 222.371 200.978C223.191 191.699 224.136 182.032 229.049 174.13C233.498 166.975 241.203 161.855 249.554 160.939C257.905 160.023 266.698 163.483 271.906 170.101C277.114 176.719 278.39 186.34 274.742 193.939C272.055 199.536 267.104 203.701 261.917 207.09C245.156 217.949 225.053 222.365 205.307 219.525" fill="#F2F2F2"/>
<path d="M263.648 163.674C256.758 169.31 250.436 175.612 244.776 182.491C235.916 193.22 228.748 205.248 223.519 218.158C223.136 219.1 224.659 219.51 225.038 218.579C233.593 197.598 247.251 179.105 264.762 164.793C265.548 164.15 264.428 163.037 263.648 163.674Z" fill="white"/>
<path d="M67.7231 220.572H45.9784C45.2437 220.571 44.5392 220.278 44.0197 219.756C43.5001 219.234 43.2079 218.527 43.207 217.789V172.41C43.2079 171.673 43.5001 170.965 44.0197 170.444C44.5392 169.922 45.2437 169.629 45.9784 169.628H67.7231C68.4579 169.629 69.1623 169.922 69.6819 170.444C70.2014 170.965 70.4937 171.673 70.4945 172.41V217.789C70.4937 218.527 70.2014 219.234 69.6819 219.756C69.1623 220.278 68.4579 220.571 67.7231 220.572Z" fill="#6C63FF"/>
<path d="M119.314 221H97.5688C96.721 220.999 95.9082 220.66 95.3087 220.059C94.7092 219.457 94.372 218.64 94.3711 217.789V129.6C94.372 128.749 94.7092 127.933 95.3087 127.331C95.9082 126.729 96.721 126.39 97.5688 126.389H119.314C120.161 126.39 120.974 126.729 121.574 127.331C122.173 127.933 122.51 128.749 122.511 129.6V217.789C122.51 218.64 122.173 219.457 121.574 220.059C120.974 220.66 120.161 220.999 119.314 221ZM97.5688 127.246C96.9471 127.246 96.3511 127.495 95.9114 127.936C95.4718 128.377 95.2245 128.976 95.2238 129.6V217.789C95.2245 218.413 95.4718 219.012 95.9114 219.453C96.3511 219.895 96.9471 220.143 97.5688 220.144H119.314C119.935 220.143 120.531 219.895 120.971 219.453C121.411 219.012 121.658 218.413 121.659 217.789V129.6C121.658 128.976 121.411 128.377 120.971 127.936C120.531 127.495 119.935 127.246 119.314 127.246H97.5688Z" fill="#3F3D56"/>
<path d="M170.904 221H149.159C148.311 220.999 147.499 220.66 146.899 220.059C146.3 219.457 145.962 218.64 145.961 217.789V73.5187C145.962 72.6675 146.3 71.8513 146.899 71.2494C147.499 70.6475 148.311 70.3089 149.159 70.308H170.904C171.752 70.3089 172.565 70.6475 173.164 71.2494C173.764 71.8513 174.101 72.6675 174.102 73.5187V217.789C174.101 218.64 173.764 219.457 173.164 220.059C172.565 220.66 171.752 220.999 170.904 221ZM149.159 71.1642C148.537 71.1649 147.941 71.4132 147.502 71.8546C147.062 72.296 146.815 72.8945 146.814 73.5187V217.789C146.815 218.413 147.062 219.012 147.502 219.453C147.941 219.895 148.537 220.143 149.159 220.144H170.904C171.526 220.143 172.122 219.895 172.561 219.453C173.001 219.012 173.248 218.413 173.249 217.789V73.5187C173.248 72.8945 173.001 72.296 172.561 71.8546C172.122 71.4132 171.526 71.1649 170.904 71.1642H149.159Z" fill="#3F3D56"/>
<path d="M222.976 220.786H201.231C200.497 220.785 199.792 220.492 199.273 219.97C198.753 219.448 198.461 218.741 198.46 218.003V14.6546C198.461 13.9169 198.753 13.2096 199.273 12.6879C199.792 12.1663 200.497 11.8728 201.231 11.872H222.976C223.711 11.8728 224.415 12.1663 224.935 12.6879C225.454 13.2096 225.747 13.9169 225.747 14.6546V218.003C225.747 218.741 225.454 219.448 224.935 219.97C224.415 220.492 223.711 220.785 222.976 220.786Z" fill="#6C63FF"/>
<path d="M87.7373 95.1921C87.8162 94.5678 87.7578 93.9337 87.5662 93.3344C87.3746 92.7352 87.0545 92.1855 86.6284 91.7239C86.2023 91.2623 85.6806 90.9002 85.1001 90.6629C84.5195 90.4257 83.8942 90.3192 83.2682 90.3509L75.6889 76.3908L73.9834 82.3842L79.1761 95.1784C79.2988 96.2308 79.8017 97.2014 80.5895 97.9064C81.3774 98.6114 82.3954 99.0017 83.4506 99.0034C84.5059 99.0051 85.5252 98.618 86.3152 97.9156C87.1053 97.2131 87.6113 96.2441 87.7373 95.1921Z" fill="#A0616A"/>
<path d="M29.3408 150.312L33.5623 153.407L47.4597 138.529L41.2288 133.962L29.3408 150.312Z" fill="#A0616A"/>
<path d="M38.8423 163.311L25.5738 153.585L29.3164 148.438L37.4584 154.406C38.818 155.403 39.7277 156.901 39.9872 158.571C40.2467 160.241 39.8349 161.946 38.8423 163.311Z" fill="#2F2E41"/>
<path d="M51.6761 166.693L56.9034 166.693L59.39 146.449L51.6753 146.449L51.6761 166.693Z" fill="#A0616A"/>
<path d="M66.9844 171.566L50.5562 171.567L50.5559 165.194L60.6368 165.193C62.3202 165.193 63.9347 165.865 65.1251 167.06C66.3155 168.255 66.9843 169.876 66.9844 171.566Z" fill="#2F2E41"/>
<path d="M67.3749 87.7355C67.3749 87.7355 69.9331 112.565 63.5376 129.69L58.8475 162.225H50.7466L51.5993 123.696L48.6147 89.4479C48.6147 89.4479 54.5839 74.0362 67.3749 87.7355Z" fill="#2F2E41"/>
<path d="M39.661 89.4477L48.1884 118.987L31.5601 145.529L39.8742 152.593L58.8475 122.84L53.3048 86.451L39.661 89.4477Z" fill="#2F2E41"/>
<path d="M61.4076 23.2092C67.1911 23.2092 71.8796 18.5016 71.8796 12.6946C71.8796 6.88749 67.1911 2.17993 61.4076 2.17993C55.624 2.17993 50.9355 6.88749 50.9355 12.6946C50.9355 18.5016 55.624 23.2092 61.4076 23.2092Z" fill="#A0616A"/>
<path d="M52.6651 27.159C52.6651 27.159 59.0606 22.878 66.3089 32.2963L68.2275 91.5884C68.2275 91.5884 62.6847 83.8826 51.1728 91.1603C39.6609 98.4381 37.1027 90.3041 37.1027 90.3041C37.1027 90.3041 29.0018 29.0855 52.6651 27.159Z" fill="#CCCCCC"/>
<path d="M65.7931 32.1468C67.6325 32.2466 69.3701 33.0259 70.6717 34.3346C71.9734 35.6434 72.747 37.3892 72.8438 39.2363L74.1967 65.0461L83.1504 89.4479L78.034 93.729L61.4057 64.618L58.0013 40.69C57.8452 39.5933 57.9333 38.4755 58.2591 37.417C58.585 36.3586 59.1405 35.3858 59.8856 34.5688C60.6308 33.7518 61.5471 33.1108 62.5686 32.692C63.5901 32.2732 64.6913 32.087 65.7931 32.1468Z" fill="#CCCCCC"/>
<path d="M53.7129 20.5816C55.4248 22.4127 58.6042 21.4297 58.8273 18.9282C58.8448 18.734 58.8435 18.5386 58.8235 18.3446C58.7083 17.2366 58.0708 16.2306 58.2235 15.0607C58.258 14.7695 58.3661 14.492 58.5374 14.2545C59.9016 12.4202 63.104 15.0749 64.3915 13.4144C65.181 12.3962 64.253 10.7932 64.8588 9.65519C65.6584 8.15324 68.0268 8.89415 69.512 8.07161C71.1645 7.15643 71.0656 4.61072 69.9779 3.0623C68.6513 1.17394 66.3253 0.16629 64.0284 0.0210563C61.7314 -0.124177 59.4503 0.499285 57.3059 1.33839C54.8694 2.29178 52.4532 3.60939 50.9538 5.76053C49.1304 8.37654 48.955 11.8935 49.8669 14.9524C50.4216 16.8132 52.3148 19.0864 53.7129 20.5816Z" fill="#2F2E41"/>
<path d="M276.492 220.818H0.507658C0.373271 220.818 0.244518 220.764 0.149629 220.668C0.0547402 220.573 0.00146484 220.444 0.00146484 220.309C0.00146484 220.174 0.0547402 220.044 0.149629 219.949C0.244518 219.853 0.373271 219.799 0.507658 219.799H276.492C276.627 219.799 276.755 219.853 276.85 219.949C276.945 220.044 276.999 220.174 276.999 220.309C276.999 220.444 276.945 220.573 276.85 220.668C276.755 220.764 276.627 220.818 276.492 220.818Z" fill="#3F3D56"/>
</g>
<defs>
<clipPath id="clip0_6_707">
<rect width="277" height="221" fill="white"/>
</clipPath>
</defs>
</svg>
