<svg width="230" height="238" viewBox="0 0 230 238" fill="none" xmlns="http://www.w3.org/2000/svg">
<g id="undraw_electricity_k2ft 1" clip-path="url(#clip0_5_81)">
<g id="Group">
<path id="Vector" d="M76.3872 70.8697C77.183 71.8906 78.1932 72.6907 79.3338 73.2031L82.6006 77.1783L91.8536 89.2518L98.105 93.3379L101.008 87.9381L87.3051 73.5151L83.4868 69.3171C83.1807 68.0235 82.5923 66.828 81.7705 65.831C79.7478 63.3056 76.9023 62.387 75.4156 63.7782C73.9286 65.1696 74.3634 68.3439 76.3872 70.8697Z" fill="#FFAFAF"/>
<path id="Vector_2" d="M132.314 82.866L126.297 72.0451L100.696 83.9314L86.7033 71.5771C86.7033 71.5771 81.1517 76.7447 80.9534 76.9292C80.7552 77.1138 95.0642 98.5298 96.0803 98.5045C97.0963 98.4793 132.314 82.866 132.314 82.866Z" fill="#DEDEDE"/>
</g>
<path id="Vector_3" d="M230 234.468C230 234.791 229.76 235.05 229.461 235.05H0.53878C0.239972 235.05 -4.92702e-06 234.791 -4.92702e-06 234.468C-4.92702e-06 234.145 0.239972 233.885 0.53878 233.885H229.461C229.76 233.885 230 234.145 230 234.468Z" fill="#3F3D58"/>
<g id="Group_2">
<path id="Vector_4" d="M74.5324 0C56.3078 0 41.481 15.0338 41.481 33.5132C41.481 38.6766 42.6715 43.8122 44.9304 48.4199H44.9032L45.5015 49.5436C50.578 58.9936 53.3969 69.7555 53.6527 80.6651C53.7303 83.9909 56.2032 86.5962 59.2821 86.5962H85.0379C88.3566 86.5962 91.1439 84.0256 91.6652 80.484C92.9337 71.8673 95.4708 63.5645 99.2052 55.8054C104.609 49.6607 107.584 41.7463 107.584 33.5132C107.584 15.0338 92.7569 0 74.5324 0ZM46.3024 49.0854L46.0882 48.6688C43.6666 44.0239 42.3865 38.7831 42.3865 33.5132C42.3865 15.5736 56.8072 0.978488 74.5324 0.978488C92.2577 0.978488 106.678 15.5736 106.678 33.5132C106.678 41.5165 103.776 49.2111 98.5057 55.1804L98.4318 55.2922C94.636 63.1622 92.0583 71.5864 90.7712 80.3302C90.3202 83.3939 87.9087 85.6177 85.0379 85.6177H59.2821C56.6982 85.6177 54.6232 83.4314 54.5578 80.6403C54.2987 69.5802 51.4442 58.6696 46.3024 49.0854Z" fill="#3F3D56"/>
<path id="Vector_5" d="M55.7189 84.1501H89.7238C90.805 84.1501 91.6528 85.1533 91.5549 86.3168L91.2365 90.1014C90.9701 93.2685 90.0453 96.3298 88.5311 99.0567C88.2779 99.5127 87.7998 99.7624 87.3112 99.6988C77.2349 98.3864 67.3758 98.3434 57.7529 99.6798C57.2265 99.7529 56.7157 99.4622 56.4784 98.9492L56.2604 98.4782C55.1704 96.1225 54.4977 93.5673 54.2771 90.9443L53.8878 86.3168C53.7899 85.1533 54.6377 84.1501 55.7189 84.1501Z" fill="#3F3D56"/>
<path id="Vector_6" d="M86.3042 97.1151H58.4595V116.698C58.4595 120.201 61.0912 123.045 64.3327 123.045H80.431C83.6725 123.045 86.3042 120.201 86.3042 116.698V97.1151Z" fill="#3F3D56"/>
<path id="Vector_7" d="M68.7986 128.182H74.833C75.4967 128.182 76.1196 127.836 76.5054 127.252L80.4182 121.333H63.2134L67.1262 127.252C67.512 127.836 68.1349 128.182 68.7986 128.182Z" fill="#3F3D56"/>
<path id="Vector_8" d="M64.2331 17.2833C68.6633 18.2746 73.0936 19.2658 77.5239 20.2571C79.5161 20.7029 81.7472 20.9342 83.5572 22.0041C85.3121 23.0413 86.5411 25.2176 85.9133 27.3963C85.3138 29.4768 83.5443 30.7819 81.6464 31.2459C79.5406 31.7606 77.2847 31.757 75.1382 31.936C72.8994 32.1228 70.6605 32.3095 68.4217 32.4963C67.3562 32.5852 66.2851 32.6465 65.2221 32.7648C64.882 32.8026 64.5113 32.8477 64.2321 33.0808C64.2363 33.0773 64.1378 33.144 64.1924 33.1542C64.2031 33.1562 64.204 33.0788 64.2024 33.0736C64.1593 32.9284 64.177 33.0658 64.2118 33.0661C64.224 33.0662 64.5447 33.2951 64.7236 33.3313C65.2063 33.4288 65.7388 33.3578 66.2279 33.3488C67.2905 33.3293 68.3537 33.351 69.415 33.4135C71.5509 33.5393 73.6838 33.8264 75.7846 34.2613C77.851 34.689 79.9076 35.2586 81.8921 36.0172C83.8163 36.7528 85.8316 38.1497 85.8839 40.6143C85.9331 42.929 84.0747 44.5557 82.1822 45.1372C81.2087 45.4363 80.1829 45.5447 79.1845 45.7052C78.0706 45.8842 76.9566 46.0633 75.8427 46.2424C73.652 46.5945 71.4612 46.9467 69.2705 47.2988C68.1565 47.4779 67.0426 47.657 65.9287 47.836C65.4092 47.9195 64.8868 47.9915 64.3691 48.0867C64.1783 48.1218 63.9982 48.1867 63.81 48.2284C63.9364 48.2004 63.7795 48.2006 63.8054 48.2324C63.723 48.2871 63.7228 48.2788 63.8049 48.2077L63.8608 48.1189C63.9887 47.7311 63.9842 47.6801 63.751 47.2215C63.7065 47.134 63.616 47.2243 63.7313 47.2105C63.8544 47.1958 63.6575 47.1939 63.7886 47.2524C63.8542 47.2816 63.9254 47.3016 63.9937 47.322C64.5095 47.4762 65.0499 47.5567 65.5749 47.6681C66.6663 47.8997 67.7577 48.1313 68.8491 48.3628C70.9955 48.8183 73.1419 49.2735 75.2883 49.7291C79.0693 50.5316 83.0849 51.6169 85.3508 55.3035C85.8438 56.1055 86.2015 57.0296 86.3802 57.9722C86.5272 58.7481 86.172 59.5579 85.4315 59.7777C84.7598 59.9772 83.9085 59.5328 83.7606 58.7526C83.0429 54.9658 79.2082 53.6058 76.0547 52.8835C73.9642 52.4047 71.8608 51.9857 69.764 51.5408C67.6507 51.0924 65.5038 50.7273 63.4085 50.1898C62.5277 49.9638 61.572 49.3786 61.3258 48.3638C61.0562 47.2526 61.5638 46.1799 62.4959 45.6623C63.3898 45.1658 64.4525 45.1266 65.4293 44.9696C66.5061 44.7965 67.5829 44.6234 68.6597 44.4503C70.8504 44.0982 73.0412 43.746 75.2319 43.3939C76.3087 43.2208 77.3855 43.0477 78.4623 42.8746C79.4608 42.7141 80.4864 42.6057 81.46 42.3066C82.1186 42.1042 82.7926 41.757 83.0835 41.0793C83.1773 40.8608 83.2014 40.7018 83.1374 40.4561C83.0495 40.1188 82.805 39.8046 82.5329 39.5722C81.9057 39.0363 81.0568 38.7972 80.3112 38.5387C79.333 38.1996 78.3439 37.897 77.3463 37.6316C75.3657 37.1048 73.3527 36.7192 71.3224 36.5055C70.2646 36.3941 69.2032 36.3233 68.1407 36.2936C67.1354 36.2654 66.1284 36.3327 65.1244 36.2991C64.0542 36.2633 62.9527 35.9541 62.218 35.0576C61.4619 34.1351 61.2781 32.8754 61.8041 31.7694C62.8451 29.5809 65.6033 29.7959 67.5261 29.6355C69.7277 29.4519 71.9292 29.2682 74.1307 29.0846C76.1893 28.9129 78.3059 28.8767 80.3466 28.5344C81.1024 28.4076 81.9734 28.1742 82.5434 27.6876C83.0659 27.2414 83.405 26.6565 83.3635 26.0704C83.3249 25.5252 82.8097 24.923 82.2703 24.5883C81.5135 24.1188 80.6207 23.9435 79.7755 23.7532C75.4258 22.7733 71.0737 21.8061 66.7228 20.8326C65.6522 20.593 64.5815 20.3534 63.5109 20.1139C62.7922 19.9531 62.3769 19.0372 62.5622 18.3084C62.7673 17.5022 63.5123 17.122 64.2331 17.2833Z" fill="#6C63FF"/>
</g>
<path id="Vector_9" d="M121.326 64.091H130.224V82.7544H121.326V64.091Z" fill="#FFAFAF"/>
<path id="Vector_10" d="M106.637 116.097L128.096 114.4C128.096 114.4 136.993 136.457 130.189 150.596L125.479 180.005L127.341 228.41H117.595L102.45 150.596L106.637 116.097Z" fill="#2F2E41"/>
<path id="Vector_11" d="M110.824 140.8L102.45 148.677L106.637 225.815H116.058L110.824 140.8Z" fill="#2F2E41"/>
<path id="Vector_12" d="M125.895 67.7605C119.752 67.7605 114.771 62.3789 114.771 55.7404C114.771 49.1018 119.752 43.7202 125.895 43.7202C132.039 43.7202 137.019 49.1018 137.019 55.7404C137.019 62.3789 132.039 67.7605 125.895 67.7605Z" fill="#FFAFAF"/>
<path id="Vector_13" d="M127.227 216.922L115.737 218.883L113.577 227.791C113.577 227.791 104.247 231.585 108.743 235.707C113.238 239.83 129.846 237.699 131.159 234.741C132.472 231.784 127.227 216.922 127.227 216.922Z" fill="#2F2E41"/>
<path id="Vector_14" d="M117.807 216.922L106.316 218.883L104.156 227.791C104.156 227.791 94.8261 231.585 99.3217 235.707C103.817 239.83 120.425 237.699 121.738 234.741C123.051 231.784 117.807 216.922 117.807 216.922Z" fill="#2F2E41"/>
<path id="Vector_15" d="M86.062 114.184C87.2972 114.199 88.5175 113.894 89.6212 113.294L94.5405 113.214L109.045 113.518L115.99 111.067L114.098 105.166L95.0424 106.972L89.607 107.358C88.5001 106.764 87.2778 106.466 86.0425 106.488C82.9517 106.496 80.4504 108.226 80.4556 110.351C80.4607 112.477 82.9702 114.192 86.062 114.184Z" fill="#FFAFAF"/>
<path id="Vector_16" d="M120.506 71.1352H131.518L135.161 83.0119L128.096 114.4L106.637 116.097L107.945 103.372C105.412 98.9233 105.614 93.2623 108.457 89.038L120.506 71.1352Z" fill="#DEDEDE"/>
<path id="Vector_17" d="M130.974 76.2252L119.46 74.0893L111.086 102.806L93.2908 106.2V114.4C93.2908 114.683 117.646 116.945 118.291 116.097C118.936 115.249 130.974 76.2252 130.974 76.2252Z" fill="#DEDEDE"/>
<path id="Vector_18" d="M120.341 48.7714C118.974 51.1669 120.234 54.3222 121.918 56.4693C123.601 58.6165 125.772 60.5011 126.523 63.1955C127.197 65.6112 126.584 68.2164 125.792 70.5897C124.999 72.963 124.014 75.3292 123.932 77.8507C123.85 80.3722 124.955 83.1568 127.153 84.008C129.408 84.8815 132.075 83.5088 134.247 84.6007C137.077 86.023 137.718 90.9472 140.803 91.4577C142.702 91.7719 144.461 89.9933 144.992 87.9986C145.522 86.004 145.141 83.875 144.758 81.8414C143.707 76.2695 142.656 70.6977 141.605 65.1259C140.731 60.4898 139.856 55.8537 138.982 51.2176C138.46 48.4497 137.84 45.4888 135.915 43.5777C133.563 41.2424 130.017 41.1869 126.825 41.3269C123.892 41.4554 120.842 41.6723 118.289 43.2368C115.736 44.8013 113.86 48.1269 114.744 51.1513C115.569 49.0227 118.034 47.8286 120.054 48.5792" fill="#2F2E41"/>
</g>
<defs>
<clipPath id="clip0_5_81">
<rect width="230" height="238" fill="white" transform="matrix(-1 0 0 1 230 0)"/>
</clipPath>
</defs>
</svg>
