<svg width="292" height="233" viewBox="0 0 292 233" fill="none" xmlns="http://www.w3.org/2000/svg">
<g clip-path="url(#clip0_5_299)">
<path d="M116.993 232.406C116.993 232.736 117.248 233 117.565 233H291.427C291.745 233 292 232.736 292 232.406C292 232.077 291.745 231.812 291.427 231.812H117.565C117.248 231.812 116.993 232.077 116.993 232.406Z" fill="#CCCCCC"/>
<path d="M230.378 103.897L224.213 59.7562L229.652 59.1453C235.338 58.508 240.631 61.9689 242.524 67.5643C245.948 72.115 247.949 77.4562 248.038 83.86C250.252 90.4016 246.941 97.6511 240.658 100.02L230.378 103.897Z" fill="#3F3D56"/>
<path d="M231.078 221.918L226.935 222.019L224.626 202.723L230.739 202.573L231.078 221.918Z" fill="#A0616A"/>
<path d="M216.866 230.879C216.866 231.604 217.363 232.192 217.975 232.192H226.197C226.197 232.192 227.006 228.82 230.305 227.369L230.533 232.192H234.774L234.26 224.436C234.26 224.436 235.395 220.286 233.039 218.165C230.682 216.044 232.591 216.339 232.591 216.339L231.664 211.539L225.255 212.32L225.208 219.856L222.097 227.336L217.535 229.673C217.129 229.881 216.866 230.355 216.866 230.879Z" fill="#2F2E41"/>
<path d="M215.944 221.772L211.802 221.873L209.493 202.577L215.606 202.427L215.944 221.772Z" fill="#A0616A"/>
<path d="M201.733 230.732C201.733 231.458 202.23 232.046 202.842 232.046H211.064C211.064 232.046 211.873 228.674 215.172 227.222L215.4 232.046H219.641L219.127 224.29C219.127 224.29 220.262 220.14 217.905 218.019C215.549 215.898 217.458 216.193 217.458 216.193L216.531 211.392L210.121 212.174L210.074 219.71L206.964 227.19L202.402 229.527C201.996 229.734 201.733 230.208 201.733 230.732Z" fill="#2F2E41"/>
<path d="M227.87 57.1222L212.953 59.8122C211.925 57.0849 206.95 49.5587 206.524 46.8883C205.416 39.9459 210.408 33.5454 217.176 33.0218C223.667 32.5195 227.621 33.7799 228.173 40.1907C228.367 42.4377 231.189 44.4653 231.757 46.643C234.893 58.657 228.62 54.5621 227.87 57.1222Z" fill="#2F2E41"/>
<path d="M205.473 107.442L204.5 122.909L208.678 209.093L216.377 207.596L221.573 137.368L223.471 208.823L232.551 209.159L238.933 125.245C239.42 118.834 237.8 112.44 234.335 107.105L205.473 107.442Z" fill="#2F2E41"/>
<path d="M224.282 57.676H212.38L209.689 62.0473L200.285 66.0823L205.473 104.415L204.176 120.892C211.508 123.471 228.522 127.464 240.829 116.927L229.795 96.3453L232.389 67.4274L227.363 62.6854L224.282 57.676Z" fill="#6C63FF"/>
<path d="M217.697 55.5023C222.664 55.5023 226.689 51.3278 226.689 46.1784C226.689 41.0289 222.664 36.8544 217.697 36.8544C212.731 36.8544 208.705 41.0289 208.705 46.1784C208.705 51.3278 212.731 55.5023 217.697 55.5023Z" fill="#A0616A"/>
<path d="M239.895 129.836C239.702 128.824 239.745 127.85 239.974 127.051L237.545 117.53L241.949 116.464L243.938 126.237C244.443 126.886 244.841 127.769 245.034 128.781C245.475 131.093 244.683 133.204 243.264 133.495C241.845 133.786 240.337 132.148 239.895 129.836Z" fill="#A0616A"/>
<path d="M226.39 65.2417C226.39 65.2417 231.903 62.8879 234.497 67.2592C237.091 71.6306 243.901 123.078 243.901 123.078L238.226 123.918L227.038 82.3907L226.39 65.2417Z" fill="#6C63FF"/>
<path d="M230.333 94.825L225.729 61.3568L229.651 64.6089L230.333 94.825Z" fill="#3F3D56"/>
<path d="M227.911 73.5572C227.175 74.3425 226.328 74.8903 225.517 75.1649L218.958 83.1056L215.405 79.7587L222.441 72.0641C222.683 71.2155 223.187 70.3228 223.924 69.5375C225.606 67.7434 227.862 67.1889 228.963 68.2989C230.064 69.4089 229.593 71.7631 227.911 73.5572Z" fill="#A0616A"/>
<path d="M206.295 63.7729C206.295 63.7729 200.101 64.5078 199.631 67.1823C199.16 69.8568 202.514 94.6938 202.514 94.6938L207.173 99.8149L225.377 77.3295L219.902 73.7637L211.487 80.6196L206.295 63.7729Z" fill="#6C63FF"/>
<path d="M216.595 34.5057C212.938 35.1731 209.393 37.2265 207.496 40.5367C205.598 43.847 202.121 48.4592 204.642 51.2872C205.513 52.2647 206.623 53.0046 207.407 54.0587C208.74 55.8524 208.933 58.3727 208.268 60.5301C207.603 62.6874 206.177 64.5168 204.545 66.0225C208.038 65.6489 211.225 63.0761 212.431 59.6569C212.99 58.0747 213.103 56.1767 212.148 54.8138C211.646 54.097 210.906 53.607 210.268 53.0175C208.622 51.4973 209.679 49.201 209.689 46.9158C209.699 44.6306 209.976 43.0407 211.635 41.5357C212.777 42.4822 216.564 42.2537 218.007 42.0109C219.451 41.7681 223.487 47.5157 224.282 46.2433C225.838 48.3174 224.773 44.0433 224.481 46.6537C224.272 48.5212 223.09 50.132 222.733 51.9753C222.423 53.5794 222.762 55.2486 223.307 56.7839C224.536 60.2471 226.841 63.29 229.795 65.349C228.089 62.8481 226.312 60.115 226.368 57.0526C226.409 54.7811 231.077 46.1011 231.73 43.9327C232.981 39.7834 229.539 39.1773 226.876 35.8194C224.538 32.8704 220.018 33.7817 216.434 34.6547" fill="#2F2E41"/>
<path d="M146.764 0H9.15292C4.10487 0 0 4.25634 0 9.49069V156.672C0 161.906 4.10487 166.162 9.15292 166.162H146.764C151.812 166.162 155.917 161.906 155.917 156.672V9.49069C155.917 4.25634 151.812 0 146.764 0ZM154.955 156.672C154.955 161.357 151.283 165.164 146.764 165.164H9.15292C4.63421 165.164 0.962452 161.357 0.962452 156.672V9.49069C0.962452 4.80524 4.6342 0.997972 9.15292 0.997972H146.764C151.283 0.997972 154.955 4.80524 154.955 9.49069V156.672Z" fill="#3F3D56"/>
<path d="M62.0926 9.65537H48.5894C47.9108 9.65537 47.3574 10.2292 47.3574 10.9328C47.3574 11.6413 47.9108 12.2152 48.5894 12.2152H62.0926C62.7711 12.2152 63.3245 11.6413 63.3245 10.9328C63.3245 10.2292 62.7711 9.65537 62.0926 9.65537Z" fill="#E6E6E6"/>
<path d="M84.7103 9.65537H71.207C70.5285 9.65537 69.9751 10.2292 69.9751 10.9328C69.9751 11.6413 70.5285 12.2152 71.207 12.2152H84.7103C85.3888 12.2152 85.9422 11.6413 85.9422 10.9328C85.9422 10.2292 85.3888 9.65537 84.7103 9.65537Z" fill="#E6E6E6"/>
<path d="M107.328 9.65537H93.8245C93.146 9.65537 92.5925 10.2292 92.5925 10.9328C92.5925 11.6413 93.1459 12.2152 93.8245 12.2152H107.328C108.006 12.2152 108.56 11.6413 108.56 10.9328C108.56 10.2292 108.006 9.65537 107.328 9.65537Z" fill="#3F3D56"/>
<path d="M41.1439 43.6174H24.2048C22.1066 43.6174 20.4031 45.3838 20.4031 47.5594V57.6389C20.4031 59.8145 22.1066 61.5809 24.2048 61.5809H41.1439C43.2421 61.5809 44.9456 59.8145 44.9456 57.6389V47.5594C44.9456 45.3838 43.2421 43.6174 41.1439 43.6174Z" fill="#6C63FF"/>
<path d="M59.0645 70.3012H42.1254C40.0273 70.3012 38.3237 72.0676 38.3237 74.2432V84.3227C38.3237 86.4983 40.0273 88.2647 42.1254 88.2647H59.0645C61.1627 88.2647 62.8662 86.4983 62.8662 84.3227V74.2432C62.8662 72.0676 61.1627 70.3012 59.0645 70.3012Z" fill="#E6E6E6"/>
<path d="M62.2867 61.0111C61.9667 61.0111 61.7072 60.7421 61.7072 60.4102V44.7882C61.7072 44.4563 61.9667 44.1873 62.2867 44.1873C62.6067 44.1873 62.8662 44.4563 62.8662 44.7882V60.4102C62.8662 60.7421 62.6067 61.0111 62.2867 61.0111ZM59.3894 52.5992C59.3894 52.931 59.13 53.2 58.8099 53.2H52.0963L54.5845 55.7789C54.8111 56.0138 54.8111 56.3947 54.5845 56.6297C54.3579 56.8646 53.9905 56.8646 53.764 56.6297L50.2872 53.0246C50.0606 52.7902 50.0601 52.4098 50.2861 52.1749L50.2872 52.1738L53.764 48.5687C53.9905 48.3337 54.3579 48.3337 54.5845 48.5687C54.8111 48.8036 54.8111 49.1846 54.5845 49.4195L52.0963 51.9983H58.8099C59.13 51.9983 59.3894 52.2673 59.3894 52.5992Z" fill="#3F3D56"/>
<path d="M23.8799 79.2829C23.8799 79.6148 24.1393 79.8838 24.4593 79.8838H31.173L28.6848 82.4626C28.4582 82.6976 28.4582 83.0785 28.6848 83.3134C28.9113 83.5484 29.2787 83.5484 29.5053 83.3134L32.9821 79.7084C33.2086 79.474 33.2091 79.0936 32.9831 78.8586L32.9821 78.8575L29.5053 75.2525C29.2787 75.0175 28.9113 75.0175 28.6848 75.2525C28.4582 75.4874 28.4582 75.8683 28.6848 76.1033L31.173 78.6821H24.4593C24.1393 78.6821 23.8799 78.9511 23.8799 79.2829ZM20.9825 87.6948C20.6625 87.6948 20.4031 87.4258 20.4031 87.094V71.4719C20.4031 71.1401 20.6625 70.8711 20.9825 70.8711C21.3026 70.8711 21.562 71.1401 21.562 71.4719V87.094C21.562 87.4258 21.3026 87.6948 20.9825 87.6948Z" fill="#3F3D56"/>
<path d="M111.518 57.4011H94.579C92.4809 57.4011 90.7773 59.1675 90.7773 61.343V71.4226C90.7773 73.5981 92.4809 75.3646 94.579 75.3646H111.518C113.616 75.3646 115.32 73.5981 115.32 71.4226V61.343C115.32 59.1675 113.616 57.4011 111.518 57.4011Z" fill="#E6E6E6"/>
<path d="M111.518 119.275H94.579C92.4809 119.275 90.7773 121.042 90.7773 123.217V133.297C90.7773 135.472 92.4809 137.239 94.579 137.239H111.518C113.616 137.239 115.32 135.472 115.32 133.297V123.217C115.32 121.042 113.616 119.275 111.518 119.275Z" fill="#E6E6E6"/>
<path d="M94.936 102.094C94.936 101.763 95.1955 101.494 95.5155 101.494H110.582C110.902 101.494 111.161 101.763 111.161 102.094C111.161 102.426 110.902 102.695 110.582 102.695H95.5155C95.1955 102.695 94.936 102.426 94.936 102.094ZM103.049 105.099C103.369 105.099 103.628 105.368 103.628 105.7V112.661L106.115 110.081C106.342 109.846 106.709 109.846 106.936 110.081C107.162 110.316 107.162 110.697 106.936 110.932L103.459 114.537C103.233 114.772 102.866 114.772 102.639 114.538L102.638 114.537L99.1615 110.932C98.9349 110.697 98.9349 110.316 99.1615 110.081C99.3881 109.846 99.7554 109.846 99.982 110.081L102.469 112.661V105.7C102.469 105.368 102.728 105.099 103.049 105.099Z" fill="#3F3D56"/>
<path d="M103.049 90.222C103.369 90.222 103.628 89.9529 103.628 89.6211V82.6597L106.115 85.2397C106.342 85.4747 106.709 85.4747 106.936 85.2397C107.162 85.0048 107.162 84.6239 106.936 84.3889L103.459 80.7838C103.233 80.5489 102.866 80.5484 102.639 80.7827L102.638 80.7838L99.1615 84.3889C98.9349 84.6239 98.9349 85.0048 99.1615 85.2397C99.3881 85.4747 99.7554 85.4747 99.982 85.2397L102.469 82.6597V89.6211C102.469 89.9529 102.728 90.222 103.049 90.222ZM94.936 93.2262C94.936 92.8944 95.1955 92.6254 95.5155 92.6254H110.582C110.902 92.6254 111.161 92.8944 111.161 93.2262C111.161 93.558 110.902 93.827 110.582 93.827H95.5155C95.1955 93.827 94.936 93.558 94.936 93.2262Z" fill="#3F3D56"/>
<path d="M100.402 15.4862C102.794 15.4862 104.733 13.4756 104.733 10.9954C104.733 8.51513 102.794 6.5045 100.402 6.5045C98.0099 6.5045 96.0708 8.51513 96.0708 10.9954C96.0708 13.4756 98.0099 15.4862 100.402 15.4862Z" fill="#6C63FF"/>
</g>
<defs>
<clipPath id="clip0_5_299">
<rect width="292" height="233" fill="white"/>
</clipPath>
</defs>
</svg>
