<svg width="27" height="20" viewBox="0 0 27 20" fill="none" xmlns="http://www.w3.org/2000/svg">
<path d="M4.7926 18.0442C4.14437 17.396 4.14437 16.345 4.7926 15.6968L19.3157 1.17366C19.9639 0.52543 21.0149 0.525433 21.6631 1.17366C22.3114 1.82189 22.3114 2.87288 21.6631 3.52112L7.14005 18.0442C6.49182 18.6924 5.44083 18.6924 4.7926 18.0442Z" fill="#2E2E2E"/>
<path d="M5.2856 17.6084C4.63737 16.9602 4.63737 15.9092 5.2856 15.261L17.4891 3.05748C18.1373 2.40925 19.1883 2.40925 19.8365 3.05748C20.4848 3.70571 20.4848 4.7567 19.8365 5.40494L7.63306 17.6084C6.98482 18.2567 5.93383 18.2566 5.2856 17.6084Z" fill="#2E2E2E"/>
<rect x="6.14742" y="0.0490723" width="23.7198" height="3.3198" rx="1.6599" transform="rotate(45 6.14742 0.0490723)" fill="#2E2E2E"/>
</svg>
