<svg width="126" height="15" viewBox="0 0 126 15" fill="none" xmlns="http://www.w3.org/2000/svg">
<path d="M125.084 14.1147L119.564 8.2561L119.557 8.24917C119.537 8.23478 119.517 8.21997 119.497 8.20473H119.493C119.475 8.19654 119.456 8.19091 119.435 8.18801C119.428 8.18568 119.421 8.18378 119.413 8.18231C119.367 8.17915 119.321 8.18986 119.282 8.21288C119.273 8.21658 119.264 8.22094 119.256 8.22593L117.369 9.64544L113.13 5.07137C113.125 5.06648 113.118 5.06526 113.114 5.06077C113.097 5.04554 113.078 5.033 113.057 5.02368C113.048 5.01981 113.039 5.01655 113.029 5.01389C113.019 5.00976 113.009 5.00622 112.998 5.00329C112.987 5.00269 112.977 5.00269 112.966 5.00329C112.958 5.00329 112.952 4.99962 112.944 5.00003C112.936 5.00044 112.933 5.00452 112.928 5.00533C112.91 5.00892 112.893 5.01439 112.877 5.02164C112.864 5.026 112.852 5.03146 112.84 5.03794C112.815 5.05389 112.794 5.07459 112.778 5.09869L112.775 5.10154L110.537 8.74041H109.238C109.181 8.7403 109.127 8.76077 109.086 8.79748L107.123 10.5664L104.91 9.5105C104.906 9.50846 104.902 9.5105 104.898 9.50846C104.864 9.49311 104.826 9.48664 104.788 9.48971C104.785 9.48971 104.782 9.48971 104.779 9.49215C104.755 9.49463 104.732 9.50097 104.711 9.5109C104.702 9.51647 104.693 9.52275 104.685 9.52966C104.681 9.53251 104.675 9.5321 104.671 9.53537L98.8208 14.0927C98.7764 14.1274 98.7485 14.1771 98.7433 14.231C98.7381 14.2848 98.756 14.3384 98.7931 14.3799C98.8302 14.4214 98.8834 14.4475 98.9411 14.4523C98.9987 14.4572 99.0561 14.4405 99.1005 14.4058L104.741 10.0123L105.762 11.8599L105.544 13.9264C105.541 13.9548 105.545 13.9835 105.554 14.0105C105.564 14.0376 105.579 14.0625 105.6 14.0836C105.621 14.1047 105.646 14.1215 105.674 14.133C105.702 14.1445 105.732 14.1503 105.762 14.1502C105.793 14.1502 105.823 14.1443 105.851 14.1327C105.879 14.1211 105.904 14.1041 105.925 14.0829L109.367 10.5138L110.622 12.7327C110.643 12.7654 110.672 12.7926 110.707 12.8117C110.742 12.8308 110.781 12.8411 110.822 12.8416C110.863 12.8402 110.903 12.8279 110.937 12.8063C110.971 12.7847 110.998 12.7545 111.014 12.7193L112.415 9.80973C112.423 9.79301 112.428 9.77531 112.431 9.75714L113.108 5.67065L117.028 9.89819L114.555 11.729C114.52 11.7553 114.494 11.7913 114.481 11.832C114.468 11.8726 114.47 11.916 114.485 11.956C114.499 11.9959 114.527 12.0306 114.564 12.0551C114.601 12.0796 114.646 12.0927 114.691 12.0927C114.74 12.0928 114.788 12.0771 114.826 12.0482L117.477 10.0853L118.683 9.17865L117.28 11.5974L113.263 13.5542C113.22 13.5753 113.185 13.6094 113.165 13.651C113.145 13.6925 113.14 13.7392 113.152 13.7835C113.164 13.8278 113.191 13.8671 113.229 13.8952C113.268 13.9234 113.315 13.9386 113.364 13.9386C113.399 13.9387 113.434 13.9307 113.465 13.9154L117.543 11.9284C117.581 11.9101 117.613 11.8818 117.634 11.8469L119.436 8.73878L124.759 14.385C124.778 14.4064 124.8 14.4242 124.826 14.4371C124.852 14.45 124.881 14.4579 124.91 14.4602C124.94 14.4626 124.969 14.4594 124.997 14.4508C125.025 14.4422 125.051 14.4284 125.073 14.4102C125.095 14.392 125.113 14.3698 125.126 14.345C125.139 14.3202 125.146 14.2932 125.147 14.2657C125.148 14.2382 125.143 14.2108 125.133 14.185C125.123 14.1593 125.107 14.1358 125.086 14.116L125.084 14.1147ZM112.004 9.66827L110.798 12.173L109.606 10.0649C109.589 10.0359 109.566 10.011 109.537 9.99243C109.508 9.97381 109.475 9.962 109.44 9.95799C109.405 9.95399 109.369 9.95792 109.337 9.96944C109.304 9.98096 109.274 9.99973 109.251 10.0242L106.044 13.3491L106.203 11.8407C106.208 11.8008 106.2 11.7605 106.181 11.7246L105.317 10.1615L107.063 10.9948C107.103 11.0142 107.149 11.0213 107.194 11.0151C107.239 11.0088 107.281 10.9897 107.313 10.9602L109.326 9.14767H110.664C110.702 9.1477 110.74 9.13825 110.773 9.12029C110.806 9.10232 110.834 9.07647 110.853 9.04535L112.569 6.25566L112.004 9.66827Z" fill="#7148FC"/>
<path d="M7.09 6.62H13.82V7.46C13.82 8.40667 13.66 9.29 13.34 10.11C13.0267 10.93 12.5767 11.65 11.99 12.27C11.4033 12.89 10.7033 13.3733 9.89 13.72C9.07667 14.0667 8.17667 14.24 7.19 14.24C6.17 14.24 5.24333 14.0667 4.41 13.72C3.58333 13.3667 2.87 12.8767 2.27 12.25C1.67 11.6233 1.21 10.8967 0.89 10.07C0.57 9.23667 0.41 8.34333 0.41 7.39C0.41 6.44333 0.57 5.55667 0.89 4.73C1.21 3.89667 1.67 3.17 2.27 2.55C2.87 1.92333 3.58333 1.43667 4.41 1.09C5.24333 0.736666 6.17 0.559999 7.19 0.559999C8.02333 0.559999 8.75667 0.649999 9.39 0.83C10.03 1.01 10.58 1.25 11.04 1.55C11.5 1.85 11.89 2.18 12.21 2.54C12.53 2.89333 12.7967 3.24 13.01 3.58L10.17 4.92C9.89667 4.5 9.52333 4.13333 9.05 3.82C8.58333 3.50667 7.96333 3.35 7.19 3.35C6.65 3.35 6.15333 3.45667 5.7 3.67C5.25333 3.88333 4.86667 4.17667 4.54 4.55C4.21333 4.91667 3.96 5.34667 3.78 5.84C3.60667 6.32667 3.52 6.84333 3.52 7.39C3.52 7.94333 3.60667 8.46333 3.78 8.95C3.96 9.43667 4.21333 9.86667 4.54 10.24C4.86667 10.6133 5.25333 10.9067 5.7 11.12C6.15333 11.3267 6.65 11.43 7.19 11.43C7.66333 11.43 8.09333 11.37 8.48 11.25C8.86667 11.13 9.2 10.9567 9.48 10.73C9.76667 10.5033 9.99 10.2367 10.15 9.93C10.3167 9.61667 10.4167 9.27333 10.45 8.9H7.09V6.62ZM18.927 14.24C18.027 14.24 17.227 14.0567 16.527 13.69C15.8337 13.3167 15.287 12.8067 14.887 12.16C14.4937 11.5067 14.297 10.76 14.297 9.92C14.297 9.08 14.4937 8.33333 14.887 7.68C15.287 7.02 15.8337 6.5 16.527 6.12C17.227 5.74 18.027 5.55 18.927 5.55C19.827 5.55 20.6204 5.74 21.307 6.12C21.9937 6.5 22.5304 7.02 22.917 7.68C23.3037 8.33333 23.497 9.08 23.497 9.92C23.497 10.76 23.3037 11.5067 22.917 12.16C22.5304 12.8067 21.9937 13.3167 21.307 13.69C20.6204 14.0567 19.827 14.24 18.927 14.24ZM18.927 11.74C19.2737 11.74 19.5737 11.6633 19.827 11.51C20.0804 11.3567 20.277 11.14 20.417 10.86C20.557 10.58 20.627 10.2633 20.627 9.91C20.627 9.55 20.557 9.23 20.417 8.95C20.277 8.67 20.0804 8.45 19.827 8.29C19.5737 8.13 19.2737 8.05 18.927 8.05C18.5804 8.05 18.277 8.13 18.017 8.29C17.7637 8.45 17.5637 8.67 17.417 8.95C17.277 9.23 17.207 9.55 17.207 9.91C17.207 10.2633 17.277 10.58 17.417 10.86C17.5637 11.14 17.7637 11.3567 18.017 11.51C18.277 11.6633 18.5804 11.74 18.927 11.74ZM30.6491 14V12.67C30.5891 12.8033 30.4357 12.9967 30.1891 13.25C29.9491 13.5033 29.6291 13.7333 29.2291 13.94C28.8291 14.14 28.3624 14.24 27.8291 14.24C27.0291 14.24 26.3291 14.0467 25.7291 13.66C25.1291 13.2667 24.6624 12.7433 24.3291 12.09C23.9957 11.43 23.8291 10.7 23.8291 9.9C23.8291 9.1 23.9957 8.37333 24.3291 7.72C24.6624 7.06 25.1291 6.53333 25.7291 6.14C26.3291 5.74667 27.0291 5.55 27.8291 5.55C28.3424 5.55 28.7924 5.63333 29.1791 5.8C29.5657 5.96 29.8791 6.15333 30.1191 6.38C30.3591 6.6 30.5257 6.80333 30.6191 6.99V5.79H33.6391V14H30.6491ZM26.8091 9.9C26.8091 10.2733 26.8957 10.61 27.0691 10.91C27.2424 11.2033 27.4724 11.4333 27.7591 11.6C28.0524 11.7667 28.3757 11.85 28.7291 11.85C29.0957 11.85 29.4191 11.7667 29.6991 11.6C29.9791 11.4333 30.1991 11.2033 30.3591 10.91C30.5257 10.61 30.6091 10.2733 30.6091 9.9C30.6091 9.52667 30.5257 9.19333 30.3591 8.9C30.1991 8.6 29.9791 8.36667 29.6991 8.2C29.4191 8.02667 29.0957 7.94 28.7291 7.94C28.3757 7.94 28.0524 8.02667 27.7591 8.2C27.4724 8.36667 27.2424 8.6 27.0691 8.9C26.8957 9.19333 26.8091 9.52667 26.8091 9.9ZM37.8081 14H34.7581V0.24H37.8081V14Z" fill="#7148FC"/>
<path d="M50.9911 8.69H46.4311V14H43.4511V0.799999H46.4311V6.08H50.9911V0.799999H53.9611V14H50.9911V8.69ZM61.8045 14V12.67C61.7445 12.8033 61.5912 12.9967 61.3445 13.25C61.1045 13.5033 60.7845 13.7333 60.3845 13.94C59.9845 14.14 59.5179 14.24 58.9845 14.24C58.1845 14.24 57.4845 14.0467 56.8845 13.66C56.2845 13.2667 55.8179 12.7433 55.4845 12.09C55.1512 11.43 54.9845 10.7 54.9845 9.9C54.9845 9.1 55.1512 8.37333 55.4845 7.72C55.8179 7.06 56.2845 6.53333 56.8845 6.14C57.4845 5.74667 58.1845 5.55 58.9845 5.55C59.4979 5.55 59.9479 5.63333 60.3345 5.8C60.7212 5.96 61.0345 6.15333 61.2745 6.38C61.5145 6.6 61.6812 6.80333 61.7745 6.99V5.79H64.7945V14H61.8045ZM57.9645 9.9C57.9645 10.2733 58.0512 10.61 58.2245 10.91C58.3979 11.2033 58.6279 11.4333 58.9145 11.6C59.2079 11.7667 59.5312 11.85 59.8845 11.85C60.2512 11.85 60.5745 11.7667 60.8545 11.6C61.1345 11.4333 61.3545 11.2033 61.5145 10.91C61.6812 10.61 61.7645 10.2733 61.7645 9.9C61.7645 9.52667 61.6812 9.19333 61.5145 8.9C61.3545 8.6 61.1345 8.36667 60.8545 8.2C60.5745 8.02667 60.2512 7.94 59.8845 7.94C59.5312 7.94 59.2079 8.02667 58.9145 8.2C58.6279 8.36667 58.3979 8.6 58.2245 8.9C58.0512 9.19333 57.9645 9.52667 57.9645 9.9ZM70.3736 11.85C70.7536 11.85 71.0669 11.7867 71.3136 11.66C71.5603 11.5267 71.7269 11.42 71.8136 11.34L73.2036 13.4C73.0969 13.4867 72.9136 13.6 72.6536 13.74C72.3936 13.8733 72.0669 13.99 71.6736 14.09C71.2869 14.19 70.8436 14.24 70.3436 14.24C69.4036 14.24 68.5769 14.0633 67.8636 13.71C67.1503 13.35 66.5936 12.8433 66.1936 12.19C65.8003 11.5367 65.6036 10.77 65.6036 9.89C65.6036 9.00333 65.8003 8.23667 66.1936 7.59C66.5936 6.94333 67.1503 6.44333 67.8636 6.09C68.5769 5.73 69.4036 5.55 70.3436 5.55C70.8369 5.55 71.2769 5.60333 71.6636 5.71C72.0569 5.81 72.3869 5.92667 72.6536 6.06C72.9203 6.18667 73.1069 6.29667 73.2136 6.39L71.7936 8.47C71.7469 8.42333 71.6603 8.35667 71.5336 8.27C71.4136 8.18333 71.2569 8.10667 71.0636 8.04C70.8703 7.97333 70.6403 7.94 70.3736 7.94C70.0469 7.94 69.7403 8.02333 69.4536 8.19C69.1736 8.35667 68.9469 8.58667 68.7736 8.88C68.6003 9.17333 68.5136 9.51 68.5136 9.89C68.5136 10.27 68.6003 10.61 68.7736 10.91C68.9469 11.2033 69.1736 11.4333 69.4536 11.6C69.7403 11.7667 70.0469 11.85 70.3736 11.85ZM79.2392 5.79H82.6792L78.8092 9.71L83.0792 14H79.5592L76.3892 10.7V14H73.3492V0.24H76.3892V8.65L79.2392 5.79ZM85.1225 10.54C85.1425 10.8333 85.2358 11.0933 85.4025 11.32C85.5692 11.5467 85.7992 11.7267 86.0925 11.86C86.3925 11.9867 86.7458 12.05 87.1525 12.05C87.5392 12.05 87.8858 12.01 88.1925 11.93C88.5058 11.85 88.7758 11.75 89.0025 11.63C89.2358 11.51 89.4158 11.3867 89.5425 11.26L90.7225 13.14C90.5558 13.32 90.3192 13.4967 90.0125 13.67C89.7125 13.8367 89.3158 13.9733 88.8225 14.08C88.3292 14.1867 87.7058 14.24 86.9525 14.24C86.0458 14.24 85.2392 14.07 84.5325 13.73C83.8258 13.39 83.2692 12.89 82.8625 12.23C82.4558 11.57 82.2525 10.7633 82.2525 9.81C82.2525 9.01 82.4258 8.29 82.7725 7.65C83.1258 7.00333 83.6358 6.49333 84.3025 6.12C84.9692 5.74 85.7725 5.55 86.7125 5.55C87.6058 5.55 88.3792 5.71333 89.0325 6.04C89.6925 6.36667 90.1992 6.85333 90.5525 7.5C90.9125 8.14 91.0925 8.94 91.0925 9.9C91.0925 9.95333 91.0892 10.06 91.0825 10.22C91.0825 10.38 91.0758 10.4867 91.0625 10.54H85.1225ZM88.2325 8.95C88.2258 8.73667 88.1692 8.52667 88.0625 8.32C87.9558 8.10667 87.7958 7.93333 87.5825 7.8C87.3692 7.66 87.0958 7.59 86.7625 7.59C86.4292 7.59 86.1458 7.65667 85.9125 7.79C85.6858 7.91667 85.5125 8.08333 85.3925 8.29C85.2725 8.49667 85.2058 8.71667 85.1925 8.95H88.2325ZM94.6434 14H91.6034V5.79H94.6434V7.06H94.5934C94.6468 6.90667 94.7768 6.71333 94.9834 6.48C95.1901 6.24 95.4801 6.02667 95.8534 5.84C96.2268 5.64667 96.6834 5.55 97.2234 5.55C97.6034 5.55 97.9534 5.61 98.2734 5.73C98.5934 5.84333 98.8268 5.95333 98.9734 6.06L97.7934 8.53C97.7001 8.41667 97.5334 8.3 97.2934 8.18C97.0601 8.05333 96.7668 7.99 96.4134 7.99C96.0068 7.99 95.6701 8.09333 95.4034 8.3C95.1434 8.50667 94.9501 8.75667 94.8234 9.05C94.7034 9.34333 94.6434 9.62 94.6434 9.88V14Z" fill="white"/>
</svg>
