<svg xmlns="http://www.w3.org/2000/svg" version="1.1" xmlns:xlink="http://www.w3.org/1999/xlink" xmlns:svgjs="http://svgjs.dev/svgjs" width="1000" height="1000"><g clip-path="url(#SvgjsClipPath1077)"><rect width="1000" height="1000" fill="#7148fc"></rect><g transform="matrix(1.8,0,0,1.8,50,50)"><svg xmlns="http://www.w3.org/2000/svg" version="1.1" xmlns:xlink="http://www.w3.org/1999/xlink" xmlns:svgjs="http://svgjs.dev/svgjs" width="500" height="500"><svg xmlns="http://www.w3.org/2000/svg" xmlns:xlink="http://www.w3.org/1999/xlink" width="500" zoomAndPan="magnify" viewBox="0 0 375 374.999991" height="500" preserveAspectRatio="xMidYMid meet" version="1.0"><defs><clipPath id="1120e9c1b9"><path d="M 20 124.527344 L 354 124.527344 L 354 244 L 20 244 Z M 20 124.527344 " clip-rule="nonzero"></path></clipPath><clipPath id="SvgjsClipPath1077"><rect width="1000" height="1000" x="0" y="0" rx="500" ry="500"></rect></clipPath></defs><g clip-path="url(#1120e9c1b9)"><path fill="#ffffff" d="M 352.277344 239.320312 L 282.753906 165.535156 L 282.671875 165.445312 C 282.414062 165.265625 282.164062 165.078125 281.917969 164.886719 L 281.867188 164.886719 C 281.636719 164.785156 281.390625 164.714844 281.136719 164.675781 C 281.046875 164.648438 280.953125 164.625 280.859375 164.605469 C 280.277344 164.566406 279.699219 164.699219 279.207031 164.988281 C 279.09375 165.035156 278.980469 165.089844 278.875 165.15625 L 255.113281 183.03125 L 201.722656 125.425781 C 201.660156 125.363281 201.578125 125.347656 201.519531 125.292969 C 201.3125 125.101562 201.074219 124.941406 200.808594 124.824219 C 200.695312 124.777344 200.578125 124.734375 200.457031 124.703125 C 200.328125 124.648438 200.195312 124.605469 200.0625 124.566406 C 199.929688 124.558594 199.796875 124.558594 199.660156 124.566406 C 199.5625 124.566406 199.480469 124.523438 199.382812 124.527344 C 199.28125 124.53125 199.25 124.582031 199.179688 124.59375 C 198.957031 124.640625 198.742188 124.707031 198.539062 124.800781 C 198.378906 124.855469 198.226562 124.921875 198.078125 125.003906 C 197.765625 125.207031 197.5 125.464844 197.296875 125.769531 L 197.261719 125.804688 L 169.074219 171.632812 L 152.710938 171.632812 C 152 171.632812 151.3125 171.890625 150.796875 172.351562 L 126.070312 194.628906 L 98.203125 181.332031 C 98.15625 181.308594 98.105469 181.332031 98.054688 181.308594 C 97.625 181.113281 97.148438 181.03125 96.671875 181.070312 C 96.632812 181.070312 96.59375 181.070312 96.550781 181.101562 C 96.253906 181.132812 95.960938 181.210938 95.691406 181.335938 C 95.578125 181.40625 95.472656 181.488281 95.375 181.574219 C 95.320312 181.609375 95.25 181.605469 95.191406 181.644531 L 21.515625 239.042969 C 20.953125 239.476562 20.605469 240.105469 20.539062 240.78125 C 20.472656 241.460938 20.699219 242.136719 21.164062 242.660156 C 21.632812 243.179688 22.304688 243.507812 23.027344 243.570312 C 23.753906 243.632812 24.476562 243.421875 25.035156 242.984375 L 96.078125 187.652344 L 108.9375 210.921875 L 106.1875 236.945312 C 106.152344 237.304688 106.195312 237.664062 106.316406 238.007812 C 106.4375 238.347656 106.632812 238.660156 106.890625 238.925781 C 107.152344 239.191406 107.464844 239.40625 107.820312 239.550781 C 108.171875 239.695312 108.550781 239.765625 108.9375 239.765625 C 109.320312 239.765625 109.703125 239.691406 110.054688 239.546875 C 110.40625 239.398438 110.722656 239.183594 110.980469 238.917969 L 154.335938 193.96875 L 170.140625 221.914062 C 170.398438 222.324219 170.765625 222.667969 171.207031 222.90625 C 171.648438 223.148438 172.148438 223.277344 172.660156 223.285156 C 173.175781 223.265625 173.675781 223.113281 174.105469 222.839844 C 174.53125 222.566406 174.867188 222.1875 175.074219 221.742188 L 192.714844 185.101562 C 192.816406 184.890625 192.890625 184.667969 192.925781 184.4375 L 201.449219 132.972656 L 250.816406 186.214844 L 219.675781 209.273438 C 219.226562 209.605469 218.902344 210.058594 218.742188 210.570312 C 218.582031 211.082031 218.597656 211.628906 218.785156 212.128906 C 218.972656 212.632812 219.324219 213.070312 219.789062 213.378906 C 220.253906 213.6875 220.8125 213.851562 221.382812 213.851562 C 222.003906 213.855469 222.605469 213.65625 223.085938 213.292969 L 256.476562 188.570312 L 271.664062 177.152344 L 253.996094 207.613281 L 203.398438 232.257812 C 202.851562 232.527344 202.421875 232.953125 202.167969 233.476562 C 201.914062 234 201.855469 234.589844 202.003906 235.148438 C 202.152344 235.703125 202.492188 236.199219 202.976562 236.554688 C 203.460938 236.910156 204.058594 237.101562 204.671875 237.101562 C 205.113281 237.101562 205.550781 237 205.941406 236.808594 L 257.304688 211.785156 C 257.785156 211.554688 258.183594 211.195312 258.449219 210.757812 L 281.144531 171.613281 L 348.183594 242.722656 C 348.417969 242.992188 348.703125 243.214844 349.03125 243.378906 C 349.359375 243.542969 349.71875 243.640625 350.089844 243.671875 C 350.460938 243.699219 350.832031 243.660156 351.183594 243.550781 C 351.535156 243.441406 351.859375 243.269531 352.140625 243.039062 C 352.417969 242.8125 352.644531 242.53125 352.804688 242.21875 C 352.960938 241.90625 353.054688 241.566406 353.070312 241.21875 C 353.085938 240.875 353.023438 240.527344 352.894531 240.203125 C 352.761719 239.878906 352.5625 239.585938 352.304688 239.335938 Z M 187.539062 183.320312 L 172.355469 214.863281 L 157.34375 188.316406 C 157.136719 187.949219 156.839844 187.636719 156.472656 187.402344 C 156.109375 187.167969 155.691406 187.019531 155.25 186.96875 C 154.808594 186.917969 154.363281 186.96875 153.949219 187.113281 C 153.535156 187.257812 153.164062 187.492188 152.871094 187.800781 L 112.480469 229.675781 L 114.492188 210.679688 C 114.550781 210.175781 114.453125 209.667969 114.210938 209.214844 L 103.332031 189.53125 L 125.3125 200.027344 C 125.820312 200.269531 126.398438 200.359375 126.964844 200.28125 C 127.535156 200.203125 128.058594 199.960938 128.472656 199.589844 L 153.816406 176.761719 L 170.664062 176.761719 C 171.148438 176.761719 171.621094 176.644531 172.042969 176.417969 C 172.460938 176.191406 172.808594 175.867188 173.046875 175.472656 L 194.664062 140.339844 Z M 187.539062 183.320312 " fill-opacity="1" fill-rule="nonzero"></path></g></svg></svg></g></g></svg>